<svg xmlns="http://www.w3.org/2000/svg" width="154" height="36" viewBox="0 0 224 36" role="img" aria-labelledby="title">
  <title id="title">GamexBuddy Logotype</title>
  <defs>
    <style>
      .s { fill: none; stroke: #00D4FF; stroke-width: 2; stroke-linecap: round; stroke-linejoin: round; }
      .f { fill: #00D4FF; }
    </style>
  </defs>

  <!-- Controller icon (left): body outline + two sticks + four buttons -->
  <g transform="translate(4,5)">
    <path class="s" d="M6 6h22a7 7 0 0 1 7 7v6a7 7 0 0 1-7 7H6a7 7 0 0 1-7-7v-6a7 7 0 0 1 7-7z"/>
    <!-- Sticks -->
    <circle class="s" cx="13" cy="16" r="2.8"/>
    <circle class="s" cx="25" cy="16" r="2.8"/>
    <!-- Buttons -->
    <circle class="f" cx="30.5" cy="11.5" r="1.6"/>
    <circle class="f" cx="34" cy="15" r="1.6"/>
    <circle class="f" cx="27" cy="15" r="1.6"/>
    <circle class="f" cx="30.5" cy="18.5" r="1.6"/>
  </g>

  <!-- Wordmark (paths, no fonts) -->
  <g transform="translate(44,4) scale(0.62)" class="f">
    <!-- G -->
    <path d="M8 14c0-6.627 5.373-12 12-12 3.866 0 7 3.134 7 7h-5c0-1.105-.895-2-2-2-3.866 0-7 3.134-7 7s3.134 7 7 7c2.761 0 5-2.239 5-5h-6v-4h11v3c0 5.523-4.477 10-10 10-6.627 0-12-5.373-12-12z"/>
    <!-- a -->
    <path d="M33 12c0-5.523 4.477-10 10-10 3.314 0 6 2.686 6 6v14h-4v-3.2c-1.58 2.16-4.034 3.2-6.4 3.2-3.86 0-5.2-2.24-5.2-5.2 0-3.6 2.84-5.8 7.6-5.8h4v-1c0-1.78-1.22-3-3-3-2.53 0-4.6 2.07-4.6 4.8H33zm13.6 5.2c-2.76 0-4.6 1.1-4.6 3 0 1.48 1.02 2.2 2.8 2.2 3.06 0 5.4-2.34 5.4-5.4v-.8h-3.6z"/>
    <!-- m -->
    <path d="M63 4h4v12.1c1.06-2.62 3.36-4.1 6.1-4.1 2.7 0 4.82 1.42 5.9 3.88C80.2 13.12 82.66 12 85.5 12c4.32 0 7.5 3.18 7.5 8.3V28h-4v-7.4c0-3.34-1.86-5.2-4.7-5.2-3 0-5.3 2.4-5.3 6.6V28h-4v-7.4c0-3.34-1.86-5.2-4.7-5.2-3 0-5.3 2.4-5.3 6.6V28h-4V4z"/>
    <!-- e -->
    <path d="M103 20c.42 3.6 3.36 6 7.3 6 2.8 0 5.06-1.14 6.2-3h4.3c-1.68 4.42-5.74 7-10.5 7-7.18 0-12.3-5.18-12.3-12s5.12-12 12-12c6.62 0 11.8 4.64 12 11h-18.9zM118.2 16c-1-3.06-3.74-5-7-5-3.6 0-6.4 2.2-7.1 5h14.1z"/>
    <!-- x -->
    <path d="M133.5 4h4.8l4.4 7 4.4-7h4.8l-6.8 10.5L152 28h-4.8l-4.8-7.6-4.8 7.6H133l7-13.5L133.5 4z"/>
    <!-- B -->
    <path d="M162 4h9.2c5.2 0 8.8 2.9 8.8 7 0 2.9-1.8 5.1-4.8 6.2 3.4 1 5.8 3.7 5.8 7.1 0 4.6-3.9 7.7-9.7 7.7H162V4zm4 4v7h5c2.9 0 5-1.3 5-3.5s-2.1-3.5-5-3.5h-5zm0 11v9h6.2c3.6 0 5.8-1.6 5.8-4.4 0-2.8-2.2-4.6-5.8-4.6H166z"/>
    <!-- u -->
    <path d="M196 12h4v8.2c0 3.8 2.1 5.8 5.6 5.8 3.4 0 5.4-2 5.4-5.8V12h4v9c0 5.8-3.8 9-9.4 9S196 26.8 196 21V12z"/>
    <!-- d -->
    <path d="M220 0h4v10.3c1.5-4.1 4.9-6.3 8.7-6.3 6 0 9.3 4.2 9.3 10.5V28h-4v-13c0-4.6-2.4-7.4-6.2-7.4-4.7 0-7.8 3.8-7.8 9.4V28h-4V0z"/>
    <!-- y -->
    <path d="M252 12h4l4.4 10.6L265 12h4l-10.3 24h-4.1l3.8-8.6L252 12z"/>
  </g>
</svg>
